<svg width="23" height="30" viewBox="0 0 23 30" fill="none" xmlns="http://www.w3.org/2000/svg">
<path d="M15.8639 1.36631C15.8639 0.896749 16.1354 0.783898 16.4675 1.11596L21.8389 6.48781C22.171 6.81987 22.0585 7.0914 21.589 7.0914H16.7174C16.2478 7.0914 15.8635 6.70702 15.8635 6.23746L15.8639 1.36631ZM11.7844 12.4053H11.1596V16.5094H11.7719C12.2726 16.5094 12.6544 16.3438 12.9159 16.0139C13.1775 15.6827 13.3085 15.211 13.3085 14.597V14.3099C13.3085 13.6851 13.1788 13.2113 12.9203 12.8891C12.6608 12.5662 12.2825 12.4053 11.7844 12.4053ZM7.50087 12.7153C7.41785 12.6211 7.31105 12.5458 7.18004 12.4896C7.04903 12.4334 6.89338 12.4053 6.71351 12.4053H5.58198V14.335H6.71351C6.89381 14.335 7.04903 14.3125 7.18004 14.2676C7.31105 14.2226 7.41785 14.1599 7.50087 14.0795C7.58388 13.999 7.64485 13.9026 7.68462 13.7902C7.7244 13.6778 7.74386 13.5554 7.74386 13.4227C7.74386 13.29 7.7244 13.1628 7.68462 13.0405C7.64485 12.9181 7.58388 12.81 7.50087 12.7153ZM22.1005 8.11527H15.6931C15.2235 8.11527 14.8392 7.73089 14.8392 7.26133V0.853944C14.8392 0.384383 14.4548 0 13.9852 0H0.853943C0.384383 0 0 0.384383 0 0.853944V29.1461C0 29.6156 0.384383 30 0.853943 30H22.1009C22.5705 30 22.9544 29.6156 22.9544 29.1461V8.96921C22.954 8.49965 22.57 8.11527 22.1005 8.11527ZM8.86674 14.2209C8.76254 14.46 8.61121 14.664 8.41275 14.8331C8.21428 15.0022 7.97216 15.1323 7.68635 15.2235C7.40055 15.3148 7.07627 15.3606 6.71307 15.3606H5.58155V17.5264H4.31468V11.3788H6.71307C7.07627 11.3788 7.40055 11.4294 7.68635 11.531C7.97216 11.6327 8.21428 11.774 8.41275 11.9552C8.61121 12.1364 8.76254 12.3521 8.86674 12.6012C8.97094 12.8502 9.02283 13.1213 9.02283 13.414C9.02283 13.7124 8.97094 13.9818 8.86674 14.2209ZM14.5923 14.5966C14.5923 15.0359 14.524 15.435 14.3873 15.7938C14.2507 16.1527 14.0579 16.461 13.8088 16.7187C13.5598 16.9764 13.2618 17.1757 12.9159 17.3158C12.5696 17.4568 12.1878 17.5268 11.7719 17.5268H9.89277V11.3788H11.7844C12.1982 11.3788 12.5774 11.4502 12.9224 11.592C13.2675 11.7338 13.5628 11.934 13.8092 12.1917C14.0557 12.4494 14.2477 12.7581 14.3856 13.1187C14.5235 13.4793 14.5927 13.8788 14.5927 14.3177L14.5923 14.5966ZM19.5157 12.4053H16.7797V13.993H19.2118V15.0147H16.7797V17.5268H15.5128V11.3788H19.5157V12.4053Z" fill="white"/>
</svg>
